<?xml version="1.0" standalone="no"?>
<!DOCTYPE svg PUBLIC "-//W3C//DTD SVG 20010904//EN"
 "http://www.w3.org/TR/2001/REC-SVG-20010904/DTD/svg10.dtd">
<svg version="1.0" xmlns="http://www.w3.org/2000/svg"
 width="225.000000pt" height="225.000000pt" viewBox="0 0 225.000000 225.000000"
 preserveAspectRatio="xMidYMid meet">

<g transform="translate(0.000000,225.000000) scale(0.100000,-0.100000)"
fill="#000000" stroke="none">
<path d="M507 2036 c-79 -29 -232 -180 -281 -279 -34 -66 -36 -162 -5 -239 45
-116 212 -383 347 -558 80 -102 270 -296 367 -372 162 -127 413 -286 559 -354
170 -78 277 -51 444 114 87 85 122 151 122 224 -1 29 -6 63 -13 74 -17 30
-293 281 -331 301 -18 10 -53 17 -83 16 -63 0 -110 -26 -206 -113 l-67 -62
-45 26 c-120 71 -360 300 -459 440 -31 43 -56 82 -56 86 0 5 27 39 60 77 106
120 132 201 90 283 -29 58 -284 326 -322 339 -40 14 -74 13 -121 -3z m192
-241 c135 -143 145 -157 137 -189 -3 -13 -42 -66 -86 -118 -87 -101 -99 -126
-82 -171 50 -132 289 -403 487 -552 75 -56 186 -115 217 -115 15 0 58 30 123
86 102 89 137 110 160 97 7 -5 74 -63 149 -131 l136 -123 -15 -37 c-19 -45
-156 -181 -209 -206 -54 -25 -103 -17 -211 38 -365 185 -685 457 -911 771 -79
109 -171 258 -221 355 -59 116 -61 159 -10 233 65 93 179 193 213 185 6 -2 62
-57 123 -123z"/>
</g>
</svg>
