<?xml version="1.0" standalone="no"?>
<!DOCTYPE svg PUBLIC "-//W3C//DTD SVG 20010904//EN"
 "http://www.w3.org/TR/2001/REC-SVG-20010904/DTD/svg10.dtd">
<svg version="1.0" xmlns="http://www.w3.org/2000/svg"
 width="225.000000pt" height="225.000000pt" viewBox="0 0 225.000000 225.000000"
 preserveAspectRatio="xMidYMid meet">

<g transform="translate(0.000000,225.000000) scale(0.100000,-0.100000)"
fill="#000000" stroke="none">
<path d="M467 2025 c-191 -48 -362 -204 -427 -388 -117 -333 63 -675 565
-1076 197 -158 503 -358 531 -347 35 14 295 183 402 263 360 267 593 530 672
759 101 292 -29 606 -305 739 -105 50 -166 65 -273 65 -186 -1 -359 -83 -468
-223 l-38 -49 -19 24 c-82 104 -184 180 -297 219 -84 28 -257 36 -343 14z"/>
</g>
</svg>
