<?xml version="1.0" standalone="no"?>
<!DOCTYPE svg PUBLIC "-//W3C//DTD SVG 20010904//EN"
 "http://www.w3.org/TR/2001/REC-SVG-20010904/DTD/svg10.dtd">
<svg version="1.0" xmlns="http://www.w3.org/2000/svg"
 width="225.000000pt" height="225.000000pt" viewBox="0 0 225.000000 225.000000"
 preserveAspectRatio="xMidYMid meet">

<g transform="translate(0.000000,225.000000) scale(0.100000,-0.100000)"
fill="#000000" stroke="none">
<path d="M600 2053 c-265 -44 -469 -280 -499 -577 -24 -235 41 -406 238 -635
120 -139 417 -402 649 -574 136 -101 138 -101 274 0 300 223 591 492 736 679
44 58 107 179 127 244 77 259 -8 574 -197 731 -106 88 -207 128 -348 136 -154
9 -268 -29 -390 -130 l-65 -53 -65 53 c-75 62 -140 96 -225 118 -55 14 -175
18 -235 8z m247 -208 c59 -27 142 -100 175 -154 39 -66 58 -81 103 -81 45 0
64 15 103 81 29 48 109 122 162 149 132 68 322 34 435 -78 87 -85 132 -192
142 -332 10 -147 -37 -271 -163 -428 -60 -76 -295 -300 -444 -424 -82 -68
-227 -178 -235 -178 -8 0 -134 96 -230 174 -139 114 -387 351 -450 429 -125
156 -172 280 -162 427 10 140 55 247 142 332 110 109 286 144 422 83z"/>
</g>
</svg>
